<svg viewBox="0 0 590 200" xmlns="http://www.w3.org/2000/svg">
  <defs>
    <linearGradient id="bgPP2" x1="0" y1="0" x2="1" y2="1">
      <stop offset="0%" stop-color="#c8890a"/>
      <stop offset="55%" stop-color="#16264f"/>
      <stop offset="100%" stop-color="#18224b"/>
    </linearGradient>
    <linearGradient id="goldPP2" x1="0" y1="0" x2="1" y2="1">
      <stop offset="0%" stop-color="#fff2b8"/>
      <stop offset="45%" stop-color="#ffd166"/>
      <stop offset="100%" stop-color="#c8890a"/>
    </linearGradient>
    <linearGradient id="goldSoftPP2" x1="0" y1="0" x2="1" y2="1">
      <stop offset="0%" stop-color="#ffe089"/>
      <stop offset="100%" stop-color="#e2a927"/>
    </linearGradient>
  </defs>

  <rect width="590" height="200" fill="url(#bgPP2)"/>

  <path d="M40,150 C130,150 110,60 210,60 C300,60 280,150 380,150 C450,150 440,90 500,90"
        fill="none" stroke="rgba(255,255,255,0.22)" stroke-width="6" stroke-linecap="round" stroke-dasharray="2 14"/>

  <g transform="translate(24,132)">
    <circle cx="16" cy="16" r="16" fill="url(#goldPP2)"/>
    <circle cx="16" cy="16" r="6" fill="#0b1020"/>
  </g>

  <g transform="translate(468,60)">
    <path d="M20,0 c17,0 30,13 30,29 c0,20 -30,45 -30,45 s-30,-25 -30,-45 c0,-16 13,-29 30,-29 z" fill="url(#goldPP2)"/>
    <circle cx="20" cy="29" r="11" fill="#0b1020"/>
  </g>

  <g transform="translate(200,27) scale(1.3)">
    <path d="M4,54 C4,44 10,40 20,40 L38,40 L46,26 L94,26 L102,40 L120,40 C130,40 136,44 136,54 L136,58 L4,58 Z" fill="url(#goldPP2)"/>
    <path d="M46,38 L51,28 L68,28 L68,38 Z" fill="#0b1020" opacity="0.55"/>
    <path d="M72,38 L72,28 L89,28 L94,38 Z" fill="#0b1020" opacity="0.55"/>
    <circle cx="26" cy="60" r="12" fill="#0b1020"/>
    <circle cx="114" cy="60" r="12" fill="#0b1020"/>
    <circle cx="26" cy="60" r="5" fill="url(#goldSoftPP2)"/>
    <circle cx="114" cy="60" r="5" fill="url(#goldSoftPP2)"/>
    <circle cx="134" cy="50" r="3" fill="url(#goldSoftPP2)"/>
  </g>
</svg>
